PathFileType	4	(X/Y/Z)	 s06c0102.trc
DataRate	CameraRate	NumFrames	NumMarkers	Units	OrigDataRate	OrigDataStartFrame	OrigNumFrames
200	200	5	48	mm	200	1	2000
Frame#	Time	racr			lacr			c7			jug			rlel			rdr			llel			ldr			s2			lic			ric			lasi			rasi			rpsi			lpsi			rgt			lgt			rth1			rth2			rth3			rth4			rlfc			rmfc			rsh1			rsh2			rsh3			rsh4			rlmal			rcal			rtoe			rmt5			lth1			lth2			lth4			lth3			llfc			lmfc			llmal			lcal			lmt5			lsh1			lsh2			lsh3			lsh4			ltoe			SBIKE			LBIKE			RBIKE			
		X1	Y1	Z1	X2	Y2	Z2	X3	Y3	Z3	X4	Y4	Z4	X5	Y5	Z5	X6	Y6	Z6	X7	Y7	Z7	X8	Y8	Z8	X9	Y9	Z9	X10	Y10	Z10	X11	Y11	Z11	X12	Y12	Z12	X13	Y13	Z13	X14	Y14	Z14	X15	Y15	Z15	X16	Y16	Z16	X17	Y17	Z17	X18	Y18	Z18	X19	Y19	Z19	X20	Y20	Z20	X21	Y21	Z21	X22	Y22	Z22	X23	Y23	Z23	X24	Y24	Z24	X25	Y25	Z25	X26	Y26	Z26	X27	Y27	Z27	X28	Y28	Z28	X29	Y29	Z29	X30	Y30	Z30	X31	Y31	Z31	X32	Y32	Z32	X33	Y33	Z33	X34	Y34	Z34	X35	Y35	Z35	X36	Y36	Z36	X37	Y37	Z37	X38	Y38	Z38	X39	Y39	Z39	X40	Y40	Z40	X41	Y41	Z41	X42	Y42	Z42	X43	Y43	Z43	X44	Y44	Z44	X45	Y45	Z45	X46	Y46	Z46	X47	Y47	Z47	X48	Y48	Z48	
1	0.0050	456.049701	1325.415800	-56.691978	472.193090	1332.349066	-386.307859	456.126320	1415.392200	-219.750494	483.738169	1262.487192	-217.039600	512.462533	1072.172963	19.702567	715.159019	927.996198	-46.399478	499.525507	1069.166425	-460.129846	633.523911	838.592849	-427.064437	-35.983124	1138.102468	-213.366297	148.787116	1091.342357	-386.871743	123.417770	1103.110046	-49.229740	152.924291	1025.196842	-354.432234	143.140499	1050.516877	-77.796124	4.121092	1175.074960	-189.211451	-1.117075	1168.586935	-249.968891	82.391289	1053.047330	-13.851238	99.204713	1022.893962	-414.398075	183.764280	983.382701	-11.495450	270.941077	957.741471	-15.193518	331.078436	895.284268	-16.479688	286.932156	987.549790	-33.961319	395.482103	809.108768	-37.859121	392.975218	783.862066	-148.001693	354.334116	693.841315	-12.024816	343.356715	608.839459	-33.069708	294.411911	537.197078	-36.061834	364.611853	605.500897	-66.201725	258.640916	458.942549	-42.186518	195.951405	429.412352	-92.296850	470.661184	408.052918	-99.685010	375.971832	387.209860	-26.841286	142.965174	910.664205	-420.063359	210.780790	857.731807	-412.911566	239.612776	878.535546	-400.652877	243.271644	773.875151	-405.451629	266.830822	666.490072	-377.847157	267.145072	648.994613	-261.437335	19.708044	391.774743	-372.851368	-55.215072	404.467145	-325.762105	82.510853	264.301018	-398.070643	199.953963	584.832511	-401.201960	160.889416	508.986540	-383.210894	86.782116	459.346919	-382.763604	180.715262	496.371349	-352.016560	158.388635	222.139017	-341.246471	-158.707189	857.285499	-213.732650	-49.349669	84.001049	-413.697173	-48.599973	79.672173	-16.253876	
2	0.0100	456.222102	1325.339367	-56.595321	472.424984	1332.186443	-386.178819	456.326138	1415.276951	-219.662323	483.984724	1262.365967	-216.949611	512.601248	1072.065775	19.773866	715.097347	927.923511	-46.201392	499.418050	1068.917872	-459.818701	633.625700	838.397526	-427.180635	-36.007765	1138.439916	-213.072771	149.057220	1091.223398	-386.884225	123.564929	1103.125346	-49.282202	153.130873	1025.093226	-354.500449	143.211430	1050.484626	-77.813507	4.244977	1175.109646	-189.277378	-0.961612	1168.613759	-250.059167	82.538394	1053.201187	-13.885065	99.380267	1022.852246	-414.463769	183.897104	983.445690	-11.551863	271.050018	957.772673	-15.259789	331.177743	895.293014	-16.550796	287.064533	987.607115	-34.040308	395.578934	809.158112	-37.965602	393.060530	783.859613	-148.069235	354.423409	693.863487	-12.077401	343.428784	608.851767	-33.095054	294.495395	537.218406	-36.073077	364.689565	605.522006	-66.247309	258.709519	458.967550	-42.179267	195.997271	429.458079	-92.274129	470.684834	407.975896	-99.686016	375.997674	387.172955	-26.852522	143.055248	910.630982	-420.105503	210.870003	857.656309	-412.983471	239.704613	878.444906	-400.704879	243.341888	773.835014	-405.533310	266.917750	666.442056	-377.892792	267.246928	648.983482	-261.518178	19.727447	391.818168	-372.845080	-55.198330	404.495609	-325.757188	82.487912	264.323364	-398.067443	200.034739	584.799178	-401.219233	160.922740	508.976940	-383.229759	86.807576	459.355476	-382.759861	180.758724	496.344664	-352.047110	158.383420	222.133942	-341.236586	-158.751369	857.300142	-213.795794	-49.348430	84.008364	-413.698496	-48.601916	79.694384	-16.220096	
3	0.0150	456.431045	1325.241056	-56.488638	472.678877	1331.999862	-386.042647	456.512451	1415.179931	-219.607825	484.217160	1262.268126	-216.830145	512.748799	1071.945076	19.819327	714.883336	927.618169	-46.077208	499.398442	1068.673361	-459.504423	633.663244	838.371917	-427.151736	-35.819385	1138.453797	-213.143955	149.313983	1091.123901	-386.902950	123.672174	1103.136571	-49.295090	153.280567	1024.962934	-354.534117	143.318440	1050.487182	-77.810560	4.431672	1175.142378	-189.368152	-0.763613	1168.624512	-250.155865	82.670262	1053.285327	-13.949115	99.547931	1022.789542	-414.509495	184.024247	983.493547	-11.609764	271.143585	957.785647	-15.317841	331.292596	895.344002	-16.600812	287.172675	987.619997	-34.089075	395.663042	809.151977	-38.035652	393.158080	783.858681	-148.130385	354.521022	693.877978	-12.132339	343.527102	608.872547	-33.131442	294.575362	537.230978	-36.086877	364.782501	605.532741	-66.269586	258.780924	458.975659	-42.178915	196.058512	429.498278	-92.262701	470.739895	407.905466	-99.692892	376.034931	387.131033	-26.845310	143.156995	910.584881	-420.156264	210.977874	857.618790	-413.049808	239.812250	878.388025	-400.762687	243.435324	773.778428	-405.584359	266.996283	666.397475	-377.935849	267.359005	648.951714	-261.562684	19.728856	391.873331	-372.856791	-55.194358	404.544042	-325.751617	82.495220	264.349663	-398.059570	200.089404	584.781921	-401.253435	160.966316	508.976961	-383.252955	86.835902	459.365945	-382.770293	180.794303	496.347599	-352.075599	158.360538	222.160789	-341.242965	-156.326924	854.842788	-216.694608	-49.348490	84.018505	-413.695884	-48.623819	79.707021	-16.222064	
4	0.0200	457.397622	1325.218806	-56.201674	472.740090	1331.700773	-386.420738	456.707614	1415.056014	-219.526543	484.436799	1262.156144	-216.698656	512.886951	1071.872919	19.896123	714.847219	927.524262	-45.919542	499.525629	1068.523501	-459.326176	633.663194	838.387946	-427.139126	-36.258308	1138.739004	-212.055436	149.585972	1091.026437	-386.905767	124.088016	1103.043153	-49.314002	153.507182	1024.866921	-354.605526	143.605896	1050.324577	-77.789780	4.533150	1175.136808	-189.486551	-0.568307	1168.627060	-250.270306	82.833935	1053.330515	-13.976469	99.739206	1022.770174	-414.619119	184.144566	983.543754	-11.684387	271.493313	958.136483	-14.929666	331.097590	895.268050	-16.422284	286.920821	987.768856	-33.986767	396.094226	808.900032	-37.996185	393.321738	783.814910	-148.159253	354.592117	693.887505	-12.183361	343.465133	608.910343	-33.387907	294.678178	537.220493	-36.120116	365.055425	605.330845	-66.353973	258.476990	459.484103	-41.782858	196.129450	429.531095	-92.255608	470.804392	407.803848	-99.687338	376.289573	386.960192	-26.903782	143.262154	910.531726	-420.184279	211.309551	856.781181	-412.624542	239.947542	878.161994	-400.710935	243.453592	773.640407	-405.643825	267.085204	666.352953	-377.968976	267.464926	648.926159	-261.603820	19.735453	391.908073	-372.854164	-55.195974	404.592922	-325.748104	82.494457	264.398230	-398.052073	200.145046	584.769096	-401.306307	160.920597	508.860694	-383.257715	86.748859	459.172108	-382.737747	180.832582	496.346883	-352.093690	158.349131	222.193854	-341.237612	-157.536994	858.772107	-215.271695	-49.346957	84.006468	-413.700316	-48.613424	79.718292	-16.219626	
5	0.0250	457.426987	1325.616894	-56.002243	472.941425	1331.784667	-386.266706	456.921488	1414.924595	-219.494428	484.500695	1262.245106	-216.491141	512.969443	1072.034931	20.095251	715.040184	927.827059	-45.697151	499.547036	1068.580348	-459.118644	633.718930	838.459374	-427.143784	-36.454144	1138.264806	-212.181782	149.843623	1090.735181	-387.064937	124.080630	1103.342313	-49.308132	153.748378	1024.890031	-354.649903	143.722561	1050.610458	-77.673813	4.900489	1174.956553	-189.561635	-0.757777	1168.644362	-250.308743	82.864224	1053.752389	-14.105361	99.749592	1022.991592	-414.643391	184.245354	983.857854	-11.636841	271.565898	958.375150	-14.948082	330.868716	895.618819	-15.175390	287.122581	988.016451	-33.745137	395.825497	808.851042	-37.623059	393.401653	783.832847	-148.265032	354.575817	694.023860	-12.017648	343.477155	609.165566	-33.275921	294.574596	537.357204	-36.099395	365.118531	605.566483	-66.255978	258.027537	459.647264	-41.814853	196.241629	429.520081	-92.295664	470.826220	407.927354	-99.568005	376.174472	387.278941	-26.811533	143.215838	910.523592	-420.098173	211.383858	856.740791	-412.808757	240.014723	878.099245	-400.903411	243.537928	773.646879	-405.903048	266.974931	666.506457	-377.935132	267.411341	649.387489	-260.846264	19.733203	392.078702	-373.014114	-55.225759	404.693616	-325.704827	82.454155	264.639518	-398.314856	200.002401	585.008334	-401.264777	160.767047	509.141796	-383.244782	86.557878	459.266349	-382.904326	180.834265	496.418595	-352.201156	158.399288	222.620173	-341.631623	-152.696847	858.750211	-212.072782	-49.470920	84.283231	-413.663361	-48.762657	80.176319	-15.796836	
